<?xml version="1.0" encoding="iso-8859-1"?>
<!-- Generator: Adobe Illustrator 19.0.0, SVG Export Plug-In . SVG Version: 6.00 Build 0)  -->
<svg version="1.1" id="Capa_1" xmlns="http://www.w3.org/2000/svg" xmlns:xlink="http://www.w3.org/1999/xlink" x="0px" y="0px"
	 viewBox="0 0 512 512" style="enable-background:new 0 0 512 512;" xml:space="preserve">
<circle style="fill:#FFD400;" cx="256" cy="256" r="256"/>
<path style="fill:#FF9F00;" d="M512,256c0-0.116-0.004-0.231-0.004-0.347L375.342,119L100.125,374.733l136.543,136.543
	C243.05,511.753,249.496,512,256,512C397.385,512,512,397.385,512,256z"/>
<path style="fill:#5A5A5A;" d="M100.124,155.533v219.2h112.584C218.736,385.51,235.359,393,256,393s37.264-7.49,43.292-18.267
	h112.584v-219.2H100.124z"/>
<path style="fill:#444444;" d="M411.876,155.533v219.2H299.292C293.264,385.51,276.641,393,256,393V155.533H411.876z"/>
<path style="fill:#E7E7E7;" d="M270.43,119L256,133.43L241.57,119H136.658v219.2h97.239L256,360.302l22.103-22.102h97.239V119
	H270.43z"/>
<polygon style="fill:#D3D3D8;" points="375.342,119 375.342,338.2 278.103,338.2 256,360.302 256,133.43 270.43,119 "/>
<g>
</g>
<g>
</g>
<g>
</g>
<g>
</g>
<g>
</g>
<g>
</g>
<g>
</g>
<g>
</g>
<g>
</g>
<g>
</g>
<g>
</g>
<g>
</g>
<g>
</g>
<g>
</g>
<g>
</g>
</svg>
